<?xml version="1.0" standalone="no"?>
<!DOCTYPE svg PUBLIC "-//W3C//DTD SVG 20010904//EN"
 "http://www.w3.org/TR/2001/REC-SVG-20010904/DTD/svg10.dtd">
<svg version="1.0" xmlns="http://www.w3.org/2000/svg"
 width="184.000000pt" height="184.000000pt" viewBox="0 0 184.000000 184.000000"
 preserveAspectRatio="xMidYMid meet">
<metadata>
Created by potrace 1.11, written by Peter Selinger 2001-2013
</metadata>
<g transform="translate(0.000000,184.000000) scale(0.100000,-0.100000)"
fill="#000000" stroke="none">
<path d="M402 1374 c-139 -37 -243 -155 -271 -308 -10 -52 -8 -154 3 -207 14
-62 62 -145 111 -192 35 -33 144 -87 177 -87 15 -1 3 -10 -37 -28 -56 -26 -68
-28 -192 -27 l-133 0 0 -60 0 -60 858 0 c471 0 859 3 862 7 3 4 6 31 5 60 l-1
53 -504 0 c-471 1 -509 2 -560 20 -64 22 -63 22 -92 24 -29 1 -14 14 44 35 88
32 175 129 213 236 19 55 26 161 14 227 -42 233 -264 370 -497 307z m138 -55
c-31 -7 -29 -7 15 -4 44 3 115 -15 115 -29 0 -3 -16 2 -36 10 -20 8 -38 13
-40 11 -5 -5 88 -42 98 -39 3 1 12 -6 20 -16 12 -16 11 -16 -7 -2 -20 14 -20
14 -1 -7 10 -12 23 -21 30 -20 6 1 10 -5 8 -14 -1 -9 5 -22 13 -29 8 -7 15
-19 15 -27 0 -8 4 -12 8 -9 4 2 9 -10 10 -27 2 -18 7 -33 11 -35 5 -2 7 -12 4
-23 -3 -10 0 -26 7 -34 7 -8 8 -15 4 -15 -5 0 -9 -16 -8 -35 7 -136 -88 -283
-203 -316 -201 -57 -369 76 -378 298 -1 40 2 94 7 120 6 27 11 56 11 65 1 9 5
14 9 12 7 -5 10 4 7 22 0 4 4 10 11 14 6 4 13 16 14 26 2 10 8 19 14 19 6 0
25 15 41 33 30 32 48 43 35 20 -4 -7 3 -3 15 10 12 12 27 22 33 22 7 0 3 -7
-8 -16 -18 -15 -18 -15 3 -4 12 5 25 15 28 20 3 6 34 9 68 9 55 -1 58 -3 27
-10z"/>
<path d="M463 1313 c9 -2 23 -2 30 0 6 3 -1 5 -18 5 -16 0 -22 -2 -12 -5z"/>
<path d="M1330 1379 c-114 -22 -226 -117 -270 -227 -26 -66 -36 -222 -19 -288
66 -244 307 -351 572 -253 46 17 61 28 71 53 18 44 4 62 -26 33 -40 -39 -204
-63 -291 -43 -73 17 -108 38 -155 91 -48 55 -74 126 -78 212 -1 34 -5 67 -10
74 -5 8 -3 10 5 4 9 -5 12 0 10 16 -1 13 1 32 6 41 4 10 8 29 9 43 0 14 4 25
8 25 8 0 23 41 20 53 -1 5 2 6 7 2 12 -7 33 29 23 40 -4 3 -2 5 3 4 6 -2 22 8
38 23 15 14 47 31 72 37 52 13 147 15 127 2 -9 -5 -2 -8 20 -8 27 -1 30 1 13
8 -14 6 -10 7 15 3 48 -8 100 -34 97 -47 -1 -7 4 -11 10 -10 7 2 12 0 12 -5
-4 -24 3 -38 20 -39 23 -2 28 9 37 75 6 47 5 49 -22 60 -80 31 -226 40 -324
21z"/>
<path d="M1363 1313 c9 -2 23 -2 30 0 6 3 -1 5 -18 5 -16 0 -22 -2 -12 -5z"/>
<path d="M1293 1300 c-35 -14 -27 -20 10 -8 17 6 34 13 36 14 8 7 -24 3 -46
-6z"/>
<path d="M1518 1303 c7 -3 16 -2 19 1 4 3 -2 6 -13 5 -11 0 -14 -3 -6 -6z"/>
<path d="M1550 1296 c0 -2 7 -7 16 -10 8 -3 12 -2 9 4 -6 10 -25 14 -25 6z"/>
</g>
</svg>
